<svg aria-hidden="true" style="width:0;height:0;position:absolute;overflow:hidden" xmlns="http://www.w3.org/2000/svg"><defs><symbol id="icon-advan1" viewBox="0 0 32 32"><path d="M8.093.144c-.35.188-.553.563-.553 1.006.006.813.209 1.556.614 2.2l.178.294-.338.381c-.381.425-.473.581-.645 1.088-.141.412-.153 1.162-.031 1.581.43 1.438 1.854 2.269 3.248 1.9.473-.125.761-.281 1.203-.656l.375-.312.35.175c.196.1.528.244.743.325l.381.138v.7c0 1.106.227 1.762.81 2.356s1.498.9 2.29.762c.565-.1 1.117-.381 1.492-.762.583-.594.81-1.25.81-2.356v-.7l.387-.138c.209-.081.54-.225.737-.325l.35-.175.375.312c.442.375.731.531 1.203.656 1.394.369 2.818-.462 3.248-1.9.123-.419.111-1.169-.031-1.581-.172-.506-.264-.662-.645-1.088l-.338-.381.178-.294c.405-.644.608-1.387.614-2.2 0-.444-.203-.819-.553-1.006L24.281 0H8.355l-.264.144zM22.828 2.1c0 .019-.178.313-.399.663-.651 1.031-.626 1.256.239 2.169.313.331.602.662.645.737.233.463-.233 1.038-.749.919-.123-.025-.393-.244-.786-.631-.786-.775-1.056-.862-1.658-.519-.694.4-1.578.806-2.008.925-.608.175-.817.306-.976.638-.129.256-.141.362-.141 1.362 0 1.231-.049 1.431-.399 1.6-.252.125-.301.125-.553 0-.35-.169-.399-.369-.399-1.6 0-1-.012-1.106-.135-1.362-.166-.325-.375-.463-.982-.638-.528-.15-1.308-.494-1.738-.775-.405-.263-.761-.362-1.044-.313-.184.037-.368.181-.86.662-.405.394-.694.625-.817.65-.51.119-.976-.463-.743-.919.043-.075.332-.406.645-.737.866-.912.89-1.138.239-2.169-.221-.35-.399-.644-.399-.663 0-.025 2.929-.038 6.508-.038s6.508.013 6.508.038zM6.245 13.206c-.313.212-.485.512-.485.844 0 .225 3.119 16.925 3.229 17.275.055.194.282.425.522.55.227.125.387.125 6.809.125s6.582 0 6.809-.125c.239-.125.467-.356.522-.55.11-.35 3.229-17.05 3.229-17.275 0-.331-.172-.631-.485-.844l-.209-.144H6.454l-.209.144zm18.21 2.275c-.061.5-.418 1.587-.682 2.081-1.283 2.375-3.714 3.819-6.729 3.988-2.278.131-4.206-.331-5.82-1.394a7 7 0 0 1-2.265-2.438c-.307-.544-.712-1.712-.774-2.237l-.043-.356h16.356l-.043.356zM10.15 21.919c2.634 1.775 6.569 2.244 9.885 1.169a10.688 10.688 0 0 0 3.18-1.688c.276-.219.295-.219.264-.081-.018.081-.381 1.994-.804 4.244s-.78 4.156-.798 4.231l-.031.144H10.795l-.031-.144c-.018-.075-.375-1.981-.798-4.231s-.786-4.163-.804-4.244c-.031-.137-.012-.137.264.081.16.125.491.356.724.519z"/></symbol><symbol id="icon-dots" viewBox="0 0 139 32"><path fill="#fff" style="fill:var(--color1,#fff)" d="M85.333 16c0 8.837-7.163 16-16 16s-16-7.163-16-16 7.163-16 16-16 16 7.163 16 16zM32 16c0 8.837-7.163 16-16 16S0 24.837 0 16 7.163 0 16 0s16 7.163 16 16zM138.667 16c0 8.837-7.163 16-16 16s-16-7.163-16-16 7.163-16 16-16 16 7.163 16 16z"/></symbol><symbol id="icon-advan2" viewBox="0 0 32 32"><path d="M29.626 21.411c-1.292-.458-2.382-.344-3.242.018.145-.877.47-1.832 1.17-2.481a1.065 1.065 0 0 0-1.449-1.561c-1.229 1.14-1.706 2.748-1.874 4.081a4.036 4.036 0 0 0-1.058-.311l1.89-9.83a1.065 1.065 0 0 0-1.046-1.266h-.204c.094-.5.141-.997.137-1.47-.016-1.994-.903-3.495-2.374-4.017-1.41-.5-2.59-.35-3.507.066.145-.976.494-2.063 1.282-2.794A1.065 1.065 0 0 0 17.902.285c-1.32 1.225-1.815 2.965-1.982 4.386-.735-.348-1.644-.527-2.708-.33-1.094-1.571-2.613-2.296-4.089-1.942-1.451.349-2.358 1.115-2.901 1.962-.41-.899-.712-2.001-.452-3.036A1.065 1.065 0 0 0 3.705.806c-.439 1.746.095 3.476.729 4.758-1.016.137-2.117.65-3.049 1.866-.578.755-.773 1.698-.596 2.7a1.065 1.065 0 0 0-.674 1.197l3.809 19.809c.096.501.535.864 1.046.864h15.237c.511 0 .949-.362 1.046-.864l.038-.195c.287.198.596.363.927.487 1.266.471 2.447.278 3.044.118.316.085.795.179 1.364.179.506 0 1.084-.075 1.68-.297 2.36-.879 3.615-3.839 3.596-6.178-.015-1.904-.866-3.339-2.276-3.839zm-6.952-9.221c-.49 4.705-4.452 7.91-9.971 7.91s-9.481-3.204-9.971-7.91h19.942zm-6.642-4.675a1.047 1.047 0 0 0 1.86 0c.029-.048.29-.466.769-.777.629-.408 1.35-.46 2.203-.157.851.302.952 1.518.956 2.027.004.463-.064.962-.191 1.453h-7.126c.236-1.19.094-2.492-.289-3.669a2.12 2.12 0 0 1 1.047.346c.479.311.74.729.769.777zM3.077 8.724c.55-.719 1.182-1.068 1.932-1.069h.002c.57 0 1.016.208 1.066.232a1.05 1.05 0 0 0 1.079-.037c.331-.211.51-.592.481-.983-.006-.077-.116-1.893 1.983-2.397.876-.211 1.625.754 1.906 1.178.807 1.22 1.221 3.108.777 4.413H2.954c-.141-.443-.179-.943.122-1.336zM5.851 29.87 3.74 18.892c.138.133.281.263.427.389 2.208 1.901 5.239 2.948 8.535 2.948s6.328-1.047 8.535-2.948c.052-.044.102-.09.152-.135l-.431 2.243c-.02.007-.041.013-.061.021-1.41.5-2.261 1.935-2.276 3.839-.009 1.164.297 2.483.898 3.622l-.192.999H5.85zm21.711-.438c-.943.351-1.881.017-1.916.005a1.04 1.04 0 0 0-.768 0c-.009.004-.96.352-1.917-.005-1.338-.498-2.223-2.556-2.21-4.165.004-.466.095-1.578.858-1.849.349-.124.661-.175.939-.175 1.108 0 1.657.812 1.782 1.024a1.047 1.047 0 0 0 1.862 0c.156-.265.977-1.468 2.721-.849.763.271.854 1.383.858 1.849.013 1.609-.872 3.667-2.21 4.166z"/></symbol><symbol id="icon-advan3" viewBox="0 0 28 32"><path stroke-width=".308" d="M.667 11.16c.587 2.696 1.894 5.088 3.953 7.163 1.839 1.86 3.455 2.99 6.008 4.163h.001l1.238.581v8.47h1.73v-7.901l.159.047c.229.066.567.066.796 0h.001l.159-.046v7.901h1.73v-8.481l1.179-.536c2.469-1.138 4.263-2.372 6.008-4.141 2.786-2.829 4.217-6.052 4.217-9.561.012-3.851-2.01-7-5.213-8.076-.689-.24-1.054-.274-2.316-.262M.667 11.16l13.614-8.305-.098-.072M.667 11.16C.533 10.545.465 9.706.462 8.884c-.003-.82.059-1.636.194-2.201.723-3.189 2.943-5.549 5.82-6.152M.667 11.16 6.475.531M20.317.482zm0 0c-.658.006-1.07.02-1.444.074-.376.054-.709.146-1.208.303h-.002c-1.188.385-2.356.994-3.133 1.632l-.001.001-.346.291m0 0-.543-.401C11.968 1.152 10.255.553 8.244.471h-.001A15.571 15.571 0 0 0 7.207.47c-.312.01-.586.03-.733.063m7.709 2.25L6.475.532m6.684 3.701c-.238-.226-.669-.537-1.14-.832a9.827 9.827 0 0 0-1.336-.718 10.047 10.047 0 0 0-1.5-.419c-1.975-.362-3.49.022-4.825 1.21l-.001.001a6.666 6.666 0 0 0-.795.844 3.015 3.015 0 0 0-.232.33l.243.044c.238.042.56.096.909.154 1.231.192 2.186.449 3.209.942 1.02.492 2.103 1.215 3.592 2.33l.001.001c.605.464 1.625 1.059 2.651 1.541l.003.001c.458.226.898.452 1.238.636.17.092.316.175.427.242.056.034.104.064.142.091a.608.608 0 0 1 .098.08c.128.137.234.274.318.447s.141.372.182.631c.081.512.098 1.281.098 2.571 0 1.17.003 1.784.034 2.135.015.175.036.271.061.332a.362.362 0 0 0 .096.135c.246.24.583.23.762.031l.004-.004c.05-.052.097-.135.125-.456.027-.32.033-.837.033-1.723 0-1.173.029-1.886.159-2.378a1.75 1.75 0 0 1 .292-.622 2.34 2.34 0 0 1 .488-.459l.002-.001a1.77 1.77 0 0 1 .647-.308c.27-.071.643-.124 1.24-.193h.001c1.864-.207 2.941-.447 4.23-.937.405-.154.704-.268.927-.371.225-.103.357-.188.439-.273a.501.501 0 0 0 .134-.302c.02-.142.014-.324.002-.588v-.003a8.836 8.836 0 0 0-.256-1.707v-.001c-.709-2.681-2.921-4.56-5.316-4.56-1.787 0-3.967.84-5.314 2.061l-.001.001c-.22.197-.405.352-.572.459s-.327.175-.495.182a.843.843 0 0 1-.486-.149 3.572 3.572 0 0 1-.517-.425zm-9.972.388-.003-.001.003.001zm5.826 3.976-.001-.001C7.78 7.682 6.435 7.012 5.25 6.717a14.269 14.269 0 0 0-1.803-.295 6.97 6.97 0 0 0-.715-.04 1.234 1.234 0 0 0-.224.019 2.17 2.17 0 0 0-.148.496 8.7 8.7 0 0 0-.127.893c-.063.665-.077 1.407-.019 1.947.316 2.926 1.588 5.398 4.032 7.743 1.927 1.865 4.325 3.319 7.043 4.235l.002.001.862.305.874-.306c2.542-.871 5.036-2.326 6.844-4.018 1.246-1.168 1.889-1.964 2.711-3.37l.001-.001c.254-.428.603-1.203.874-1.892.135-.344.248-.661.32-.899a2.99 2.99 0 0 0 .058-.218 13.238 13.238 0 0 0-.912.3h-.001c-1.188.432-2.967.816-4.402.944h-.001l-.063.005c-.323.027-.548.045-.715.089-.166.044-.252.106-.311.216-.067.126-.107.328-.127.676-.018.322-.018.746-.018 1.313v.121c0 1.098-.014 1.745-.096 2.184a1.768 1.768 0 0 1-.189.553 1.974 1.974 0 0 1-.328.417c-.235.247-.47.425-.733.54s-.547.164-.871.164c-.5 0-.927-.099-1.284-.317s-.63-.547-.835-.983c-.105-.223-.164-.436-.198-.864-.033-.423-.042-1.067-.042-2.156 0-.906-.009-1.537-.031-1.957a4.775 4.775 0 0 0-.042-.47.824.824 0 0 0-.035-.144c-.001-.001-.007-.008-.023-.02s-.039-.029-.068-.048a3.193 3.193 0 0 0-.225-.13 8.752 8.752 0 0 0-.654-.31c-1.006-.42-2.333-1.164-3.138-1.761-.296-.219-.959-.703-1.48-1.084l-.001-.001zM2.49 6.407c-.002.001-.002.001 0 0zm.036-.038-.001.002.001-.002z"/></symbol><symbol id="icon-arrow-right2" viewBox="0 0 32 32"><path d="m19.414 27.414 10-10a2 2 0 0 0 0-2.828l-10-10a2 2 0 1 0-2.828 2.828L23.172 14H4a2 2 0 1 0 0 4h19.172l-6.586 6.586c-.39.39-.586.902-.586 1.414s.195 1.024.586 1.414a2 2 0 0 0 2.828 0z"/></symbol><symbol id="icon-pfb" viewBox="0 0 16 32"><path d="M14.266 15.97H10.09v15.39H3.763V15.97H.754v-5.409h3.009v-3.5c0-2.503 1.182-6.422 6.384-6.422l4.687.02v5.25h-3.401c-.558 0-1.342.28-1.342 1.474v3.183h4.729l-.553 5.403z"/></symbol><symbol id="icon-pgithub" viewBox="0 0 32 32"><path d="M16 .941C7.729.941.941 7.729.941 16c0 7.058 4.953 13.47 11.529 15.059v-4.982c-.652.143-1.251.147-1.915-.049-.89-.263-1.613-.855-2.15-1.759-.342-.577-.949-1.203-1.581-1.157l-.155-1.758c1.368-.117 2.551.833 3.254 2.014.312.525.671.832 1.132.968.446.131.924.068 1.481-.129.14-1.116.651-1.534 1.037-2.122v-.001c-3.922-.585-5.486-2.666-6.106-4.308-.822-2.181-.381-4.905 1.073-6.627.028-.034.079-.121.059-.183-.667-2.014.146-3.679.176-3.856.769.228.894-.229 3.342 1.258l.423.254c.177.105.121.045.298.032a12.77 12.77 0 0 1 3.16-.445 12.84 12.84 0 0 1 3.204.456l.137.014c-.012-.002.037-.009.12-.058 3.057-1.852 2.947-1.247 3.767-1.513.03.177.831 1.87.172 3.858-.089.274 2.65 2.782 1.132 6.809-.62 1.643-2.183 3.724-6.106 4.309v.001c.503.766 1.107 1.174 1.104 2.755v6.219C26.105 29.47 31.057 23.058 31.057 16 31.057 7.729 24.27.941 15.998.941z"/></symbol><symbol id="icon-ptelegram" viewBox="0 0 40 32"><path d="m16.205 20.751-.635 8.339c.909 0 1.302-.364 1.774-.802l4.261-3.801 8.829 6.035c1.619.842 2.76.399 3.197-1.39l5.797-25.346c.514-2.234-.866-3.108-2.443-2.56L2.92 13.398c-2.325.842-2.29 2.052-.395 2.6l8.709 2.528L31.463 6.712c.952-.588 1.818-.263 1.106.326L16.205 20.751z"/></symbol><symbol id="icon-line" viewBox="0 0 3456 32"><path stroke-width="16" d="M0 16h3456"/></symbol><symbol id="btn-close" viewBox="0 0 32 32"><path stroke="#fff" style="stroke:var(--color1,#fff)" stroke-width="2" d="m2.519 2 26.963 28M2 29.481 30 2.518"/></symbol><symbol id="btn-icon" viewBox="0 0 6 10" fill="none"><path d="m1 1 4 4-4 4" stroke="#D41443" stroke-width="2" stroke-linecap="round" stroke-linejoin="round"/></symbol><symbol id="btn-menu" viewBox="0 0 46 32"><path stroke="#d41443" style="stroke:var(--color2,#d41443)" stroke-width="2.286" d="M0 2.286h45.714M0 16h45.714M0 29.714h45.714"/></symbol><symbol id="icon-love" viewBox="0 0 29 32"><path d="m7.634.33.059.265-.003.001-.056-.265zM2.608 5.65l.264.06-.001.003-.264-.063zm.01 3.886zm3.448 6.247.192-.191-.193.191zm5.256 3.641.113-.246.002.001-.115.245zm1.17.55.115-.245.156.073v.172h-.271zm0 7.416v.271h-.271v-.271h.271zm1.254 0h.271v.271h-.271v-.271zm0-7.009h-.271v-.362l.347.101-.076.26zm.313.091-.075.261h-.001l.076-.26zm.627 0 .076.26h-.001l-.075-.261zm.314-.091-.076-.26.347-.101v.362H15zm0 7.009v.271h-.271v-.271H15zm1.254 0h.271v.271h-.271v-.271zm0-7.426h-.271v-.175l.159-.072.112.247zm1.118-.509.114.246-.001.001-.112-.247zm5.255-3.622.193.19-.193-.19zm3.678-8.331h-.271v-.001l.271.001zM21.802.513l-.086.257-.003-.001.089-.256zM19.806.289l.003.271-.002-.271zm-2.299.326-.084-.258.003-.001.081.259zm-2.716 1.414-.175-.207.003-.002.172.21zm-.387.325.175.207-.164.138-.172-.127.161-.218zm-.564-.417.161-.218h.001l-.161.218zM9.159.279l.009-.271h.002l-.011.271zm.857 1.312.049-.267h.001l-.049.267zm1.348.377.098-.253.005.002-.103.251zm2.225 1.393-.186.197-.001-.001.187-.197zM15.23 3.3l.182.201-.001.001-.181-.202zm9.591 2.269-.262.07v-.001l.262-.069zm.23 1.536-.271.012v-.006l.271-.007zm-1.41 1.485-.096-.253.096.254zm-3.762.834-.031-.269h.001l.03.27zm-1.598.418-.162-.217.003-.002.159.22zm-.951 4.954-.202-.181.003-.003.003-.003.195.188zm-1.567-5.534-.198.185-.001-.001.199-.184zm-1.641-.896.115-.245.005.002-.12.243zm-2.361-1.373.163-.217.003.002-.165.215zM5.826 4.135l-.042.268h-.002l.044-.268zm-1.16-.204-.119.244-.024-.012-.021-.016.164-.216zm.982-1.241.18.203-.002.002-.178-.204zm.909 2.828.064-.264h.002l-.065.263zm3.365 1.679-.16.219-.002-.001.162-.218zm1.306.956.161-.218-.161.218zm2.737 1.536.104-.25.002.001-.107.249zm.909.488-.208.175-.004-.005.212-.169zm.324 4.954-.245.116.245-.115zm3.062.489-.196-.187.003-.003.194.19zm1.713-4.954.024.27h-.002l-.022-.27zm3.845-.824.094.254-.001.001-.093-.255zm.993-.295-.189.194-.019-.019-.015-.022.224-.153zm-1.129 2.878-.234-.137.001-.002.233.139zm-2.413 3.001.185.198-.185-.198zm-6.081 3.571-.089-.256.002-.001.088.257zm-.815.285.089.256-.09.031-.09-.032.091-.256zm-.805-.285.087-.257.004.001-.091.256zM7.31 15.233l.188-.196.001.001-.189.195zM3.715 8.326zm.293-3.052.234.137-.002.003-.232-.141zM7.689.595c-2.358.494-4.21 2.436-4.817 5.115l-.529-.12C2.99 2.735 4.983.608 7.578.064l.111.531zM2.872 5.713c-.108.453-.162 1.136-.16 1.845.003.708.062 1.417.171 1.921l-.53.115c-.12-.554-.181-1.305-.184-2.034-.003-.728.052-1.459.175-1.972l.528.125zm.011 3.766c.501 2.298 1.613 4.337 3.375 6.113l-.385.382c-1.832-1.846-2.997-3.977-3.52-6.379l.53-.115zm3.376 6.113c1.585 1.603 2.968 2.572 5.176 3.586l-.226.493c-2.264-1.04-3.702-2.046-5.335-3.698l.386-.381zm5.178 3.587 1.17.549-.23.491-1.17-.549.23-.491zm1.326.795v3.703h-.542v-3.703h.542zm0 3.703v3.713h-.542v-3.713h.542zm-.271 3.442h.627v.542h-.627v-.542zm.627 0h.627v.542h-.627v-.542zm.356.271v-3.5h.542v3.5h-.542zm0-3.5v-3.51h.542v3.51h-.542zm.347-3.77.313.092-.152.521-.313-.092.152-.521zm.312.092c.129.037.349.037.478 0l.149.521c-.226.065-.55.065-.776 0l.149-.521zm.476 0 .313-.092.152.521-.313.092-.152-.521zm.661.169v3.51h-.542v-3.51h.542zm0 3.509v3.5h-.542v-3.5h.542zM15 27.119h.627v.542H15v-.542zm.627 0h.627v.542h-.627v-.542zm.355.271v-3.713h.542v3.713h-.542zm0-3.713v-3.713h.542v3.713h-.542zm.159-3.96 1.118-.509.225.494-1.118.509-.225-.494zm1.117-.508c2.136-.985 3.676-2.045 5.176-3.566l.386.381c-1.551 1.572-3.146 2.668-5.335 3.677l-.227-.493zm5.176-3.566c2.392-2.429 3.6-5.171 3.6-8.141h.542c0 3.133-1.279 6.007-3.756 8.522l-.386-.381zm3.6-8.142c.01-3.253-1.691-5.849-4.318-6.731l.173-.514c2.889.97 4.699 3.806 4.688 7.247l-.542-.002zM21.713.769c-.54-.188-.806-.219-1.904-.209l-.005-.542c1.116-.01 1.457.02 2.087.239l-.178.512zM19.808.56c-.58.005-.919.018-1.219.061-.297.042-.564.116-1.001.252l-.162-.518c.441-.138.743-.223 1.086-.272.34-.049.712-.061 1.291-.066l.005.542zm-2.217.313c-1.01.328-1.991.842-2.628 1.366l-.344-.419c.7-.575 1.746-1.119 2.805-1.462l.167.516zm-2.625 1.363-.387.326-.349-.415.387-.326.349.415zm-.723.336-.564-.417.322-.436.564.417-.322.436zm-.564-.416C12.27 1.119 10.838.619 9.148.55L9.17.008c1.8.073 3.335.611 4.831 1.711l-.321.437zM9.15.55a13.79 13.79 0 0 0-.886-.001 4.065 4.065 0 0 0-.572.046l-.117-.53c.143-.032.397-.05.672-.058.283-.009.613-.009.922.001L9.151.55zm.915.775a9.213 9.213 0 0 1 1.397.39l-.197.505a8.587 8.587 0 0 0-1.299-.362l.099-.533zm1.402.392c.354.146.816.399 1.24.665.422.265.83.556 1.069.783l-.374.393c-.199-.19-.57-.458-.984-.717a8.514 8.514 0 0 0-1.158-.622l.206-.502zm2.308 1.447c.168.159.291.262.392.325.097.06.154.072.196.07.046-.002.116-.021.232-.096a3.82 3.82 0 0 0 .453-.366l.362.404a4.337 4.337 0 0 1-.521.417 1.013 1.013 0 0 1-.505.182.88.88 0 0 1-.505-.152 3.216 3.216 0 0 1-.476-.391l.372-.394zm1.273-.065c1.262-1.144 3.28-1.922 4.957-1.922v.542c-1.541 0-3.43.727-4.593 1.781l-.364-.402zm4.957-1.921c2.33 0 4.416 1.815 5.079 4.322l-.524.139c-.612-2.316-2.517-3.918-4.555-3.918v-.542zm5.078 4.32c.12.446.228 1.159.239 1.6l-.542.014a7.645 7.645 0 0 0-.221-1.472l.524-.141zm.239 1.595c.01.222.018.422-.005.592a.844.844 0 0 1-.226.491c-.127.133-.301.234-.511.33-.212.098-.49.204-.843.338l-.192-.507c.358-.136.617-.235.809-.324.194-.089.291-.155.345-.211.043-.045.068-.095.082-.191a3.1 3.1 0 0 0 .001-.493l.542-.025zm-1.585 1.751c-1.177.448-2.162.665-3.828.85l-.06-.539c1.635-.181 2.573-.391 3.695-.818l.193.507zm-3.827.85c-.53.061-.83.105-1.036.159a1.15 1.15 0 0 0-.435.208l-.318-.44a1.7 1.7 0 0 1 .615-.293c.249-.065.587-.113 1.111-.174l.062.539zm-1.467.365a1.723 1.723 0 0 0-.349.324 1.126 1.126 0 0 0-.188.407c-.099.373-.127.946-.127 1.992h-.542c0-1.029.024-1.677.145-2.131.063-.236.152-.426.28-.595.126-.166.281-.3.457-.431l.324.435zm-.664 2.722c0 .774-.005 1.25-.031 1.553-.026.299-.075.496-.222.649l-.391-.376c.01-.01.049-.041.073-.32.024-.275.029-.724.029-1.507h.542zm-.247 2.196c-.342.38-.909.333-1.258-.007l.378-.389c.173.168.379.141.476.033l.403.363zm-1.259-.007a.711.711 0 0 1-.179-.26 1.454 1.454 0 0 1-.081-.408c-.029-.331-.031-.896-.031-1.917h.542c0 1.034.003 1.568.029 1.87.013.15.03.219.044.254.01.024.019.038.054.072l-.378.389zm-.291-2.585c0-1.145-.016-1.789-.082-2.202a1.55 1.55 0 0 0-.125-.442 1.161 1.161 0 0 0-.211-.294l.396-.371c.119.127.222.259.303.428.081.167.135.357.173.594.073.464.088 1.153.088 2.287h-.542zm-.419-2.939c.01.011.01.008-.02-.012a3.16 3.16 0 0 0-.104-.067 8.874 8.874 0 0 0-.36-.204 33.277 33.277 0 0 0-1.077-.553l.24-.486c.404.199.794.399 1.096.563.151.082.281.155.382.216.05.03.095.059.132.085a.656.656 0 0 1 .109.09l-.398.368zm-1.556-.834c-.919-.432-1.847-.971-2.411-1.404l.33-.43c.523.401 1.413.921 2.312 1.343l-.231.491zM11.598 7.21c-1.308-.979-2.237-1.597-3.099-2.012-.856-.413-1.657-.63-2.715-.795l.084-.536c1.094.171 1.95.401 2.867.843.912.439 1.874 1.083 3.188 2.067l-.325.434zM5.782 4.402a61.282 61.282 0 0 1-.806-.137l-.257-.046-.078-.015-.03-.007-.018-.005c-.002-.001-.023-.006-.046-.018l.237-.488c-.03-.015-.059-.02-.045-.017a.09.09 0 0 1 .012.003l.067.013.25.045c.209.037.493.085.801.136l-.088.535zm-1.279-.255a.295.295 0 0 1-.116-.211.404.404 0 0 1 .012-.132.775.775 0 0 1 .073-.168c.058-.102.145-.226.245-.353.202-.256.482-.562.753-.798l.357.408a5.794 5.794 0 0 0-.684.725 2.395 2.395 0 0 0-.199.284c-.02.036-.024.049-.022.043 0-.002.007-.026.004-.063a.242.242 0 0 0-.096-.169l-.327.432zm.965-1.66C6.75 1.346 8.217.986 10.065 1.324l-.098.533c-1.705-.312-2.997.019-4.138 1.035l-.361-.405zm1.155 2.768c1.108.275 2.342.894 3.461 1.724l-.323.436c-1.075-.798-2.245-1.379-3.268-1.633l.131-.526zm3.459 1.723c.459.335 1.045.763 1.307.957l-.323.436c-.26-.193-.845-.619-1.305-.955l.32-.438zm1.307.957c.681.505 1.821 1.145 2.68 1.504l-.209.501c-.896-.374-2.075-1.036-2.795-1.569l.323-.436zm2.683 1.505c.22.094.436.196.609.289.086.046.165.091.229.132a.764.764 0 0 1 .177.147l-.424.339c.012.015.008.006-.048-.031a2.57 2.57 0 0 0-.189-.109 7.587 7.587 0 0 0-.567-.268l.213-.499zm1.01.563a.45.45 0 0 1 .083.161c.015.049.027.103.036.161.018.115.032.267.042.457.02.382.028.948.028 1.746h-.542c0-.799-.008-1.352-.027-1.718a4.047 4.047 0 0 0-.036-.399.56.56 0 0 0-.018-.084c-.006-.019-.004-.001.019.026l.415-.349zm.189 2.524c0 .964.008 1.515.036 1.868.027.343.071.48.137.621l-.491.23c-.101-.215-.156-.419-.187-.809-.03-.379-.037-.952-.037-1.911h.542zm.173 2.489c.155.329.347.551.58.693.234.143.532.22.919.22v.542c-.459 0-.861-.091-1.202-.299-.342-.209-.598-.521-.788-.925l.491-.231zm1.499.912c.244 0 .435-.036.604-.111s.335-.195.516-.385l.393.374c-.216.227-.438.397-.691.508s-.522.156-.822.156v-.542zm1.123-.498a1.34 1.34 0 0 0 .225-.282c.05-.09.091-.2.121-.363.064-.341.078-.87.078-1.85h.542c0 .963-.012 1.548-.087 1.95a1.706 1.706 0 0 1-.181.529 1.874 1.874 0 0 1-.311.397l-.387-.38zm.424-2.496c0-.548-.001-.969.016-1.287.017-.31.054-.569.159-.765.12-.224.308-.334.529-.392.2-.053.461-.071.756-.095l.045.541c-.322.027-.521.042-.663.079-.121.032-.159.069-.189.123-.044.082-.079.234-.096.54-.017.299-.016.7-.016 1.256h-.542zm1.459-2.539c1.233-.11 2.767-.441 3.776-.809l.185.51c-1.059.385-2.639.726-3.914.839l-.048-.54zm3.775-.808c.265-.098.514-.182.701-.237.093-.027.175-.05.239-.063.031-.006.066-.013.1-.015a.286.286 0 0 1 .269.121l-.448.306a.26.26 0 0 0 .176.111c.023.003.039.002.039.002l-.027.005a2.583 2.583 0 0 0-.196.052c-.173.051-.41.131-.667.226l-.188-.509zM25 9.352a.299.299 0 0 1 .081.141.372.372 0 0 1 .012.09.7.7 0 0 1-.012.133 2.663 2.663 0 0 1-.074.297 10.98 10.98 0 0 1-.293.824c-.241.613-.558 1.321-.799 1.727l-.466-.277c.218-.367.523-1.043.76-1.648.118-.301.217-.577.278-.782.031-.104.05-.181.059-.232l.004-.03c0 .002 0 .016.006.037.005.018.02.065.065.109l.378-.389zm-1.083 3.21c-.745 1.275-1.337 2.008-2.462 3.062l-.371-.396c1.09-1.021 1.647-1.713 2.365-2.94l.468.274zm-2.463 3.062c-1.64 1.534-3.889 2.845-6.178 3.629l-.176-.513c2.225-.762 4.405-2.035 5.984-3.512l.371.396zm-6.177 3.629-.815.285-.179-.512.815-.285.179.512zm-.995.285-.805-.285.181-.511.805.285-.181.511zm-.8-.284c-2.45-.826-4.617-2.139-6.361-3.826l.377-.39c1.683 1.629 3.78 2.9 6.157 3.702l-.173.514zm-6.36-3.825c-2.213-2.124-3.386-4.388-3.676-7.074l.539-.058c.274 2.543 1.379 4.693 3.512 6.741l-.376.391zM3.446 8.355c-.055-.512-.041-1.196.017-1.798.029-.302.069-.59.118-.83.047-.23.109-.45.196-.593l.464.281c-.034.056-.082.194-.128.421a7.487 7.487 0 0 0-.109.773c-.055.58-.067 1.225-.017 1.689l-.539.058zm.328-3.218a.342.342 0 0 1 .16-.136.524.524 0 0 1 .12-.034 1.54 1.54 0 0 1 .247-.019c.181-.002.417.012.675.037.515.051 1.144.149 1.645.269l-.127.527a12.4 12.4 0 0 0-1.571-.257 6.38 6.38 0 0 0-.615-.035.96.96 0 0 0-.159.011c-.015.003-.014.004-.004 0a.212.212 0 0 0 .097-.089l-.468-.275z"/><path d="M7.634.33C5.158.849 3.235 2.883 2.608 5.65c-.23.966-.219 2.828.01 3.886.512 2.35 1.651 4.435 3.448 6.246 1.609 1.628 3.02 2.614 5.256 3.642l1.17.549v7.416h1.254V20.38l.313.092c.178.051.449.051.627 0l.313-.092v7.009h1.254v-7.426l1.118-.509c2.163-.997 3.73-2.075 5.256-3.622 2.434-2.472 3.678-5.28 3.678-8.332.01-3.347-1.745-6.063-4.503-6.989-.585-.203-.888-.234-1.996-.224-1.16.01-1.421.051-2.299.326-1.034.336-2.048.865-2.717 1.414l-.387.326-.564-.417C12.387.868 10.903.349 9.158.278c-.606-.02-1.296 0-1.525.051zm2.382 1.261a8.917 8.917 0 0 1 1.348.376c.669.275 1.787.977 2.226 1.394.679.641.867.631 1.64-.061 1.212-1.099 3.166-1.851 4.775-1.851 2.184 0 4.179 1.709 4.817 4.12a7.95 7.95 0 0 1 .23 1.536c.042.916.01.946-1.411 1.485-1.149.437-2.111.651-3.761.834-1.055.122-1.275.183-1.599.417-.669.498-.773.865-.773 2.94 0 1.556-.021 1.851-.178 2.014-.219.244-.606.234-.867-.02-.199-.193-.209-.336-.209-2.391 0-2.279-.063-2.665-.491-3.123-.094-.102-.836-.498-1.64-.895-.909-.427-1.818-.956-2.361-1.373C9.139 5.03 7.98 4.47 5.827 4.134a33.02 33.02 0 0 1-1.16-.203c-.094-.071.47-.793.982-1.241 1.212-1.078 2.591-1.424 4.367-1.099zM6.557 5.518c1.066.264 2.267.865 3.364 1.679.46.336 1.045.763 1.306.956.7.519 1.86 1.17 2.738 1.536.428.183.836.397.909.488.094.112.125.753.125 2.35 0 1.923.031 2.248.199 2.604.345.732.899 1.068 1.745 1.068.543 0 .919-.163 1.317-.58.449-.458.502-.743.502-2.686 0-2.208-.021-2.167 1.212-2.269 1.254-.112 2.811-.448 3.845-.824.522-.193.972-.326.993-.295.115.112-.669 2.106-1.128 2.879-.731 1.251-1.306 1.963-2.414 3.001-1.609 1.506-3.824 2.798-6.081 3.571l-.815.285-.805-.285c-2.414-.814-4.545-2.106-6.259-3.764-2.173-2.085-3.312-4.293-3.594-6.907-.104-.977.052-2.655.293-3.052.084-.142 1.578.01 2.549.244z"/></symbol><symbol id="logo" viewBox="0 0 127 32"><path fill="#fff" style="fill:var(--color1,#fff)" d="M31.36 16.32C31.36 24.98 24.483 32 16 32S.64 24.98.64 16.32 7.517.64 16 .64s15.36 7.02 15.36 15.68z"/><path fill="#d41443" style="fill:var(--color2,#d41443)" d="M11.849.562C4.443 2.805 0 8.635 0 16.004c0 6.023 3.091 11.277 8.179 13.904 2.64 1.346 3.027.384.58-1.474-1.739-1.41-2.061-2.05-2.061-4.421 0-1.666-.386-3.011-.966-3.524-1.159-.961-1.288-3.46-.129-4.357.451-.384.902-1.666.966-2.819.322-4.229 4.894-8.201 9.467-8.201s9.145 3.973 9.466 8.201c.064 1.153.515 2.435.966 2.819 1.159.897 1.03 3.396-.129 4.357-.58.513-.966 1.858-.966 3.524 0 2.371-.322 3.011-2.061 4.421-2.705 2.114-1.932 2.883 1.095 1.025 4.25-2.627 7.406-8.33 7.406-13.391C31.813 5.944 21.252-2.257 11.85.562z"/><path fill="#d41443" style="fill:var(--color2,#d41443)" d="M12.686 7.994c-1.159.513-2.125 1.153-2.125 1.538 0 .705 3.477 1.986 5.474 1.986s5.474-1.281 5.474-1.986c0-.769-3.993-2.499-5.603-2.499-.644.064-2.125.449-3.22.961zM45.851 11.326c-.966.256-1.159 1.089-1.159 5.703v5.382h4.572l-.193-5.574c-.193-5.831-.451-6.279-3.22-5.51zM53.386 11.646c-2.125 1.153-2.898 2.563-2.898 5.318 0 3.78 2.061 5.574 5.86 5.318 2.576-.192 2.833-.384 3.027-1.986s.064-1.73-1.932-1.602c-2.061.192-2.125.064-2.125-2.05s.129-2.243 1.996-2.05c1.546.128 2.125-.128 2.383-1.089.129-.641 0-1.538-.386-1.922-.902-.897-4.25-.897-5.925.064zM61.049 11.71c-.193.513-.258 3.011-.129 5.638l.193 4.741h4.186c3.864 0 4.186-.128 4.379-1.474.193-1.217-.064-1.41-2.06-1.41-1.288 0-2.319-.32-2.319-.641 0-.384.902-.641 1.932-.641 1.481 0 1.932-.256 1.932-1.281s-.451-1.281-1.932-1.281c-1.03 0-1.932-.32-1.932-.641 0-.384.837-.641 1.868-.641 1.804 0 3.027-1.41 2.254-2.627-.58-.961-7.985-.705-8.372.256zM73.993 11.518c-2.125.833-2.962 2.307-3.027 4.998-.065 4.613 1.803 6.215 6.633 5.767 1.868-.128 2.189-.448 2.189-1.794 0-1.41-.257-1.602-2.061-1.41-1.546.128-2.125-.064-2.447-1.089-.58-1.986.644-3.588 2.705-3.588 1.224 0 1.868-.384 1.996-1.217.451-2.05-2.833-3.011-5.989-1.666zM81.914 11.262c-.323.256-.515 2.883-.515 5.831v5.382l2.06-.192c1.61-.128 2.19-.577 2.512-1.794l.386-1.602.515 1.73c.387 1.474.837 1.794 2.512 1.794 2.769 0 3.091-.448 1.932-2.691-.708-1.41-.837-2.114-.322-2.627.837-.833.902-3.652.129-4.87-.644-1.025-8.371-1.858-9.208-.961zm5.28 3.46c0 .705-.257 1.281-.644 1.281-.322 0-.644-.577-.644-1.281s.322-1.281.644-1.281c.387 0 .644.577.644 1.281zM93.441 11.326c-.258.192-.451 2.819-.451 5.767v5.318h4.186c4.057 0 4.186-.064 4.186-1.602 0-1.346-.322-1.602-1.932-1.602-1.03 0-1.932-.32-1.932-.641 0-.384.708-.641 1.61-.641 1.159 0 1.61-.32 1.61-1.281s-.451-1.281-1.61-1.281c-.902 0-1.61-.32-1.61-.641 0-.384.902-.641 1.932-.641 1.61 0 1.932-.256 1.932-1.602 0-1.538-.193-1.602-3.735-1.602-2.061 0-3.992.192-4.186.448zM106.45 11.262c-1.16.32-4.122 8.842-3.542 10.252.515 1.281 3.413 1.153 4.186-.192.579-1.089.644-1.089 1.803 0 1.482 1.281 4.701 1.474 4.701.256 0-.384-.644-2.947-1.482-5.574-1.288-4.229-1.674-4.806-3.027-4.934-.902 0-2.061.064-2.64.192zm1.803 5.831c-.193.641-.322.256-.322-.769 0-1.089.129-1.538.322-1.153.129.448.129 1.346 0 1.922zM115.723 11.326c-.58.192-.837 1.986-.837 5.703v5.382h1.868c1.61 0 1.932-.32 2.189-1.794.257-1.666.257-1.666.772-.32.258.833.902 1.474 1.352 1.474.515 0 1.224-.641 1.546-1.474.515-1.346.58-1.346.58.384.065 1.602.257 1.794 2.061 1.602l1.996-.192.065-5.318c.129-4.934.064-5.318-1.288-5.638-2.061-.513-3.799.705-4.379 3.076l-.451 2.114-.708-2.243c-.902-3.011-2.254-3.78-4.765-2.755zM9.016 11.967c-.193.256-.386 1.089-.386 1.922 0 1.474.064 1.474 7.406 1.474s7.406 0 7.406-1.474c0-2.178-.58-2.435-2.64-1.41-2.318 1.217-7.213 1.217-9.531 0-1.03-.513-1.996-.705-2.254-.513zM7.148 17.669c-1.03 1.089.708 1.538 5.731 1.538h5.409v2.243c0 1.217.322 2.243.644 2.243.386 0 .644-.961.644-2.178 0-2.114.129-2.243 2.576-2.435 1.417-.128 2.576-.513 2.576-.833 0-.705-16.872-1.281-17.581-.577z"/><path fill="#d41443" style="fill:var(--color2,#d41443)" d="M8.629 23.308c0 3.524 1.224 4.229 7.406 4.229s7.406-.705 7.406-4.229c0-1.538-.322-2.178-.966-2.178-.58 0-.966.577-.966 1.538 0 3.588-4.894 3.908-5.603.384-.322-1.858-.515-1.922-3.8-1.922H8.629v2.178zM12.622 30.548c.386 2.05 6.955 1.858 6.955-.128 0-.705-.837-.961-3.606-.961-3.027 0-3.542.192-3.349 1.089z"/></symbol><symbol id="icon-vector" viewBox="0 0 26 32"><path fill="#d41443" stroke="#d41443" style="stroke:var(--color1,#d41443)" stroke-linejoin="round" stroke-linecap="round" stroke-width="6.4" d="M5.173 3.2 19.342 16 5.173 28.8"/></symbol><symbol id="icon-close-about" viewBox="0 0 32 32"><path stroke="#fff" stroke-width="2" d="m2.519 2 26.963 28M2 29.481 30 2.518"/></symbol></defs></svg>