<svg aria-hidden="true" style="position:absolute;width:0;height:0;overflow:hidden" xmlns="http://www.w3.org/2000/svg">
  <defs>
    <symbol id="icon-advan1" viewBox="0 0 32 32">
      <path d="M8.093.144c-.35.188-.553.563-.553 1.006.006.813.209 1.556.614 2.2l.178.294-.338.381c-.381.425-.473.581-.645 1.088-.141.412-.153 1.162-.031 1.581.43 1.438 1.854 2.269 3.248 1.9.473-.125.761-.281 1.203-.656l.375-.312.35.175c.196.1.528.244.743.325l.381.138v.7c0 1.106.227 1.762.81 2.356s1.498.9 2.29.762c.565-.1 1.117-.381 1.492-.762.583-.594.81-1.25.81-2.356v-.7l.387-.138c.209-.081.54-.225.737-.325l.35-.175.375.312c.442.375.731.531 1.203.656 1.394.369 2.818-.462 3.248-1.9.123-.419.111-1.169-.031-1.581-.172-.506-.264-.662-.645-1.088l-.338-.381.178-.294c.405-.644.608-1.387.614-2.2 0-.444-.203-.819-.553-1.006L24.281 0H8.355l-.264.144zM22.828 2.1c0 .019-.178.313-.399.663-.651 1.031-.626 1.256.239 2.169.313.331.602.662.645.737.233.463-.233 1.038-.749.919-.123-.025-.393-.244-.786-.631-.786-.775-1.056-.862-1.658-.519-.694.4-1.578.806-2.008.925-.608.175-.817.306-.976.638-.129.256-.141.362-.141 1.362 0 1.231-.049 1.431-.399 1.6-.252.125-.301.125-.553 0-.35-.169-.399-.369-.399-1.6 0-1-.012-1.106-.135-1.362-.166-.325-.375-.463-.982-.638-.528-.15-1.308-.494-1.738-.775-.405-.263-.761-.362-1.044-.313-.184.037-.368.181-.86.662-.405.394-.694.625-.817.65-.51.119-.976-.463-.743-.919.043-.075.332-.406.645-.737.866-.912.89-1.138.239-2.169-.221-.35-.399-.644-.399-.663 0-.025 2.929-.038 6.508-.038s6.508.013 6.508.038zM6.245 13.206c-.313.212-.485.512-.485.844 0 .225 3.119 16.925 3.229 17.275.055.194.282.425.522.55.227.125.387.125 6.809.125s6.582 0 6.809-.125c.239-.125.467-.356.522-.55.11-.35 3.229-17.05 3.229-17.275 0-.331-.172-.631-.485-.844l-.209-.144H6.454l-.209.144zm18.21 2.275c-.061.5-.418 1.587-.682 2.081-1.283 2.375-3.714 3.819-6.729 3.988-2.278.131-4.206-.331-5.82-1.394a7 7 0 0 1-2.265-2.438c-.307-.544-.712-1.712-.774-2.237l-.043-.356h16.356l-.043.356zM10.15 21.919c2.634 1.775 6.569 2.244 9.885 1.169a10.688 10.688 0 0 0 3.18-1.688c.276-.219.295-.219.264-.081-.018.081-.381 1.994-.804 4.244s-.78 4.156-.798 4.231l-.031.144H10.795l-.031-.144c-.018-.075-.375-1.981-.798-4.231s-.786-4.163-.804-4.244c-.031-.137-.012-.137.264.081.16.125.491.356.724.519z"/>
    </symbol>
    <symbol id="icon-dots" viewBox="0 0 139 32">
<path fill="#fff" style="fill: var(--color1, #fff)" d="M85.333 16c0 8.837-7.163 16-16 16s-16-7.163-16-16c0-8.837 7.163-16 16-16s16 7.163 16 16z"></path>
<path fill="#fff" style="fill: var(--color1, #fff)" d="M32 16c0 8.837-7.163 16-16 16s-16-7.163-16-16c0-8.837 7.163-16 16-16s16 7.163 16 16z"></path>
<path fill="#fff" style="fill: var(--color1, #fff)" d="M138.667 16c0 8.837-7.163 16-16 16s-16-7.163-16-16c0-8.837 7.163-16 16-16s16 7.163 16 16z"></path>
</symbol>
    <symbol id="icon-advan2" viewBox="0 0 32 32">
      <path d="M29.626 21.411c-1.292-.458-2.382-.344-3.242.018.145-.877.47-1.832 1.17-2.481a1.065 1.065 0 0 0-1.449-1.561c-1.229 1.14-1.706 2.748-1.874 4.081a4.036 4.036 0 0 0-1.058-.311l1.89-9.83a1.065 1.065 0 0 0-1.046-1.266h-.204c.094-.5.141-.997.137-1.47-.016-1.994-.903-3.495-2.374-4.017-1.41-.5-2.59-.35-3.507.066.145-.976.494-2.063 1.282-2.794A1.065 1.065 0 0 0 17.902.285c-1.32 1.225-1.815 2.965-1.982 4.386-.735-.348-1.644-.527-2.708-.33-1.094-1.571-2.613-2.296-4.089-1.942-1.451.349-2.358 1.115-2.901 1.962-.41-.899-.712-2.001-.452-3.036A1.065 1.065 0 0 0 3.705.806c-.439 1.746.095 3.476.729 4.758-1.016.137-2.117.65-3.049 1.866-.578.755-.773 1.698-.596 2.7a1.065 1.065 0 0 0-.674 1.197l3.809 19.809c.096.501.535.864 1.046.864h15.237c.511 0 .949-.362 1.046-.864l.038-.195c.287.198.596.363.927.487 1.266.471 2.447.278 3.044.118.316.085.795.179 1.364.179.506 0 1.084-.075 1.68-.297 2.36-.879 3.615-3.839 3.596-6.178-.015-1.904-.866-3.339-2.276-3.839zm-6.952-9.221c-.49 4.705-4.452 7.91-9.971 7.91s-9.481-3.204-9.971-7.91h19.942zm-6.642-4.675a1.047 1.047 0 0 0 1.86 0c.029-.048.29-.466.769-.777.629-.408 1.35-.46 2.203-.157.851.302.952 1.518.956 2.027.004.463-.064.962-.191 1.453h-7.126c.236-1.19.094-2.492-.289-3.669a2.12 2.12 0 0 1 1.047.346c.479.311.74.729.769.777zM3.077 8.724c.55-.719 1.182-1.068 1.932-1.069h.002c.57 0 1.016.208 1.066.232a1.05 1.05 0 0 0 1.079-.037c.331-.211.51-.592.481-.983-.006-.077-.116-1.893 1.983-2.397.876-.211 1.625.754 1.906 1.178.807 1.22 1.221 3.108.777 4.413H2.954c-.141-.443-.179-.943.122-1.336zM5.851 29.87 3.74 18.892c.138.133.281.263.427.389 2.208 1.901 5.239 2.948 8.535 2.948s6.328-1.047 8.535-2.948c.052-.044.102-.09.152-.135l-.431 2.243c-.02.007-.041.013-.061.021-1.41.5-2.261 1.935-2.276 3.839-.009 1.164.297 2.483.898 3.622l-.192.999H5.85zm21.711-.438c-.943.351-1.881.017-1.916.005a1.04 1.04 0 0 0-.768 0c-.009.004-.96.352-1.917-.005-1.338-.498-2.223-2.556-2.21-4.165.004-.466.095-1.578.858-1.849.349-.124.661-.175.939-.175 1.108 0 1.657.812 1.782 1.024a1.047 1.047 0 0 0 1.862 0c.156-.265.977-1.468 2.721-.849.763.271.854 1.383.858 1.849.013 1.609-.872 3.667-2.21 4.166z"/>
    </symbol>
    <symbol id="icon-advan3" viewBox="0 0 28 32">
      <path stroke-width=".308" d="M.667 11.16c.587 2.696 1.894 5.088 3.953 7.163 1.839 1.86 3.455 2.99 6.008 4.163h.001l1.238.581v8.47h1.73v-7.901l.159.047c.229.066.567.066.796 0h.001l.159-.046v7.901h1.73v-8.481l1.179-.536c2.469-1.138 4.263-2.372 6.008-4.141 2.786-2.829 4.217-6.052 4.217-9.561.012-3.851-2.01-7-5.213-8.076-.689-.24-1.054-.274-2.316-.262M.667 11.16l13.614-8.305-.098-.072M.667 11.16C.533 10.545.465 9.706.462 8.884c-.003-.82.059-1.636.194-2.201.723-3.189 2.943-5.549 5.82-6.152M.667 11.16 6.475.531M20.317.482zm0 0c-.658.006-1.07.02-1.444.074-.376.054-.709.146-1.208.303h-.002c-1.188.385-2.356.994-3.133 1.632l-.001.001-.346.291m0 0-.543-.401C11.968 1.152 10.255.553 8.244.471h-.001A15.571 15.571 0 0 0 7.207.47c-.312.01-.586.03-.733.063m7.709 2.25L6.475.532m6.684 3.701c-.238-.226-.669-.537-1.14-.832a9.827 9.827 0 0 0-1.336-.718 10.047 10.047 0 0 0-1.5-.419c-1.975-.362-3.49.022-4.825 1.21l-.001.001a6.666 6.666 0 0 0-.795.844 3.015 3.015 0 0 0-.232.33l.243.044c.238.042.56.096.909.154 1.231.192 2.186.449 3.209.942 1.02.492 2.103 1.215 3.592 2.33l.001.001c.605.464 1.625 1.059 2.651 1.541l.003.001c.458.226.898.452 1.238.636.17.092.316.175.427.242.056.034.104.064.142.091a.608.608 0 0 1 .098.08c.128.137.234.274.318.447s.141.372.182.631c.081.512.098 1.281.098 2.571 0 1.17.003 1.784.034 2.135.015.175.036.271.061.332a.362.362 0 0 0 .096.135c.246.24.583.23.762.031l.004-.004c.05-.052.097-.135.125-.456.027-.32.033-.837.033-1.723 0-1.173.029-1.886.159-2.378a1.75 1.75 0 0 1 .292-.622 2.34 2.34 0 0 1 .488-.459l.002-.001a1.77 1.77 0 0 1 .647-.308c.27-.071.643-.124 1.24-.193h.001c1.864-.207 2.941-.447 4.23-.937.405-.154.704-.268.927-.371.225-.103.357-.188.439-.273a.501.501 0 0 0 .134-.302c.02-.142.014-.324.002-.588v-.003a8.836 8.836 0 0 0-.256-1.707v-.001c-.709-2.681-2.921-4.56-5.316-4.56-1.787 0-3.967.84-5.314 2.061l-.001.001c-.22.197-.405.352-.572.459s-.327.175-.495.182a.843.843 0 0 1-.486-.149 3.572 3.572 0 0 1-.517-.425zm-9.972.388-.003-.001.003.001zm5.826 3.976-.001-.001C7.78 7.682 6.435 7.012 5.25 6.717a14.269 14.269 0 0 0-1.803-.295 6.97 6.97 0 0 0-.715-.04 1.234 1.234 0 0 0-.224.019 2.17 2.17 0 0 0-.148.496 8.7 8.7 0 0 0-.127.893c-.063.665-.077 1.407-.019 1.947.316 2.926 1.588 5.398 4.032 7.743 1.927 1.865 4.325 3.319 7.043 4.235l.002.001.862.305.874-.306c2.542-.871 5.036-2.326 6.844-4.018 1.246-1.168 1.889-1.964 2.711-3.37l.001-.001c.254-.428.603-1.203.874-1.892.135-.344.248-.661.32-.899a2.99 2.99 0 0 0 .058-.218 13.238 13.238 0 0 0-.912.3h-.001c-1.188.432-2.967.816-4.402.944h-.001l-.063.005c-.323.027-.548.045-.715.089-.166.044-.252.106-.311.216-.067.126-.107.328-.127.676-.018.322-.018.746-.018 1.313v.121c0 1.098-.014 1.745-.096 2.184a1.768 1.768 0 0 1-.189.553 1.974 1.974 0 0 1-.328.417c-.235.247-.47.425-.733.54s-.547.164-.871.164c-.5 0-.927-.099-1.284-.317s-.63-.547-.835-.983c-.105-.223-.164-.436-.198-.864-.033-.423-.042-1.067-.042-2.156 0-.906-.009-1.537-.031-1.957a4.775 4.775 0 0 0-.042-.47.824.824 0 0 0-.035-.144c-.001-.001-.007-.008-.023-.02s-.039-.029-.068-.048a3.193 3.193 0 0 0-.225-.13 8.752 8.752 0 0 0-.654-.31c-1.006-.42-2.333-1.164-3.138-1.761-.296-.219-.959-.703-1.48-1.084l-.001-.001zM2.49 6.407c-.002.001-.002.001 0 0zm.036-.038-.001.002.001-.002z"/>
    </symbol>
    <symbol id="icon-arrow-right2" viewBox="0 0 32 32">
      <path d="m19.414 27.414 10-10a2 2 0 0 0 0-2.828l-10-10a2 2 0 1 0-2.828 2.828L23.172 14H4a2 2 0 1 0 0 4h19.172l-6.586 6.586c-.39.39-.586.902-.586 1.414s.195 1.024.586 1.414a2 2 0 0 0 2.828 0z"/>
    </symbol>

    <symbol id="icon-pfb" viewBox="0 0 16 32">
      <path d="M14.266 15.97h-4.176v15.39h-6.327v-15.39h-3.009v-5.409h3.009v-3.5c0-2.503 1.182-6.422 6.384-6.422l4.687 0.020v5.25h-3.401c-0.558 0-1.342 0.28-1.342 1.474v3.183h4.729l-0.553 5.403z"></path>
    </symbol>
    <symbol id="icon-pgithub" viewBox="0 0 32 32">
      <path d="M16 0.941c-8.271 0-15.059 6.788-15.059 15.059 0 7.058 4.953 13.47 11.529 15.059v-4.982c-0.652 0.143-1.251 0.147-1.915-0.049-0.89-0.263-1.613-0.855-2.15-1.759-0.342-0.577-0.949-1.203-1.581-1.157l-0.155-1.758c1.368-0.117 2.551 0.833 3.254 2.014 0.312 0.525 0.671 0.832 1.132 0.968 0.446 0.131 0.924 0.068 1.481-0.129 0.14-1.116 0.651-1.534 1.037-2.122v-0.001c-3.922-0.585-5.486-2.666-6.106-4.308-0.822-2.181-0.381-4.905 1.073-6.627 0.028-0.034 0.079-0.121 0.059-0.183-0.667-2.014 0.146-3.679 0.176-3.856 0.769 0.228 0.894-0.229 3.342 1.258l0.423 0.254c0.177 0.105 0.121 0.045 0.298 0.032 1.022-0.278 2.099-0.431 3.16-0.445 1.069 0.014 2.14 0.167 3.204 0.456l0.137 0.014c-0.012-0.002 0.037-0.009 0.12-0.058 3.057-1.852 2.947-1.247 3.767-1.513 0.030 0.177 0.831 1.87 0.172 3.858-0.089 0.274 2.65 2.782 1.132 6.809-0.62 1.643-2.183 3.724-6.106 4.309v0.001c0.503 0.766 1.107 1.174 1.104 2.755v6.219c6.577-1.589 11.529-8.001 11.529-15.059 0-8.271-6.787-15.059-15.059-15.059v0z"></path>
    </symbol>
    <symbol id="icon-ptelegram" viewBox="0 0 40 32">
      <path d="M16.205 20.751l-0.635 8.339c0.909 0 1.302-0.364 1.774-0.802l4.261-3.801 8.829 6.035c1.619 0.842 2.76 0.399 3.197-1.39l5.797-25.346c0.514-2.234-0.866-3.108-2.443-2.56l-34.065 12.172c-2.325 0.842-2.29 2.052-0.395 2.6l8.709 2.528 20.229-11.814c0.952-0.588 1.818-0.263 1.106 0.326l-16.364 13.713z"></path>
    </symbol>
    <symbol id="icon-line" viewBox="0 0 3456 32">
<path stroke-linejoin="miter" stroke-linecap="butt" stroke-miterlimit="4" stroke-width="16" d="M0 16h3456"></path>
</symbol>
   <symbol id="btn-close" viewBox="0 0 32 32">
<path stroke="#fff" style="stroke: var(--color1, #fff)" stroke-linejoin="miter" stroke-linecap="butt" stroke-miterlimit="4" stroke-width="2" d="M2.519 2l26.963 28"></path>
<path stroke="#fff" style="stroke: var(--color1, #fff)" stroke-linejoin="miter" stroke-linecap="butt" stroke-miterlimit="4" stroke-width="2" d="M2 29.481l28-26.963"></path>
</symbol>
<symbol id="btn-icon" viewBox="0 0 6 10" fill="none">
<path d="M1 1L5 5L1 9" stroke="#D41443" stroke-width="2" stroke-linecap="round" stroke-linejoin="round"/>
</symbol>
<symbol id="btn-menu" viewBox="0 0 46 32">
<path stroke="#d41443" style="stroke: var(--color2, #d41443)" stroke-linejoin="miter" stroke-linecap="butt" stroke-miterlimit="4" stroke-width="2.2857" d="M0 2.286h45.714"></path>
<path stroke="#d41443" style="stroke: var(--color2, #d41443)" stroke-linejoin="miter" stroke-linecap="butt" stroke-miterlimit="4" stroke-width="2.2857" d="M0 16h45.714"></path>
<path stroke="#d41443" style="stroke: var(--color2, #d41443)" stroke-linejoin="miter" stroke-linecap="butt" stroke-miterlimit="4" stroke-width="2.2857" d="M0 29.714h45.714"></path>
</symbol>
<symbol id="icon-love" viewBox="0 0 29 32">
<path d="M7.634 0.33l0.059 0.265-0.003 0.001-0.056-0.265zM2.608 5.65l0.264 0.060-0.001 0.003-0.264-0.063zM2.618 9.536v0zM6.066 15.783l0.192-0.191 0 0-0.193 0.191zM11.322 19.424l0.113-0.246 0.002 0.001-0.115 0.245zM12.492 19.974l0.115-0.245 0.156 0.073v0.172h-0.271zM12.492 27.39v0.271h-0.271v-0.271h0.271zM13.746 27.39h0.271v0.271h-0.271v-0.271zM13.746 20.381h-0.271v-0.362l0.347 0.101-0.076 0.26zM14.059 20.472l-0.075 0.261-0.001-0 0.076-0.26zM14.686 20.472l0.076 0.26-0.001 0-0.075-0.261zM15 20.381l-0.076-0.26 0.347-0.101v0.362h-0.271zM15 27.39v0.271h-0.271v-0.271h0.271zM16.254 27.39h0.271v0.271h-0.271v-0.271zM16.254 19.964h-0.271v-0.175l0.159-0.072 0.112 0.247zM17.372 19.455l0.114 0.246-0.001 0.001-0.112-0.247zM22.627 15.833l0.193 0.19-0 0-0.193-0.19zM26.305 7.502h-0.271v-0.001l0.271 0.001zM21.802 0.513l-0.086 0.257-0.003-0.001 0.089-0.256zM19.806 0.289l0.003 0.271h-0l-0.002-0.271zM17.507 0.615l-0.084-0.258 0.003-0.001 0.081 0.259zM14.791 2.029l-0.175-0.207 0.003-0.002 0.172 0.21zM14.404 2.354l0.175 0.207-0.164 0.138-0.172-0.127 0.161-0.218zM13.84 1.937l0.161-0.218 0.001 0-0.161 0.218zM9.159 0.279l0.009-0.271 0.002 0-0.011 0.271zM10.016 1.591l0.049-0.267 0.001 0-0.049 0.267zM11.364 1.968l0.098-0.253 0.005 0.002-0.103 0.251zM13.589 3.361l-0.186 0.197-0.001-0.001 0.187-0.197zM15.23 3.3l0.182 0.201-0.001 0.001-0.181-0.202zM24.821 5.569l-0.262 0.070-0-0.001 0.262-0.069zM25.051 7.105l-0.271 0.012-0-0.006 0.271-0.007zM23.641 8.59l-0.096-0.253 0-0 0.096 0.254zM19.879 9.424l-0.031-0.269 0.001-0 0.030 0.27zM18.281 9.842l-0.162-0.217 0.003-0.002 0.159 0.22zM17.33 14.796l-0.202-0.181 0.003-0.003 0.003-0.003 0.195 0.188zM15.763 9.262l-0.198 0.185-0.001-0.001 0.199-0.184zM14.122 8.366l0.115-0.245 0.005 0.002-0.12 0.243zM11.761 6.993l0.163-0.217 0.003 0.002-0.165 0.215zM5.826 4.135l-0.042 0.268-0.002-0 0.044-0.268zM4.666 3.931l-0.119 0.244-0.024-0.012-0.021-0.016 0.164-0.216zM5.648 2.69l0.18 0.203-0.002 0.002-0.178-0.204zM6.557 5.518l0.064-0.264 0.002 0-0.065 0.263zM9.922 7.197l-0.16 0.219-0.002-0.001 0.162-0.218zM11.228 8.153l0.161-0.218 0 0-0.161 0.218zM13.965 9.689l0.104-0.25 0.002 0.001-0.107 0.249zM14.874 10.177l-0.208 0.175-0.004-0.005 0.212-0.169zM15.198 15.131l-0.245 0.116-0-0 0.245-0.115zM18.26 15.62l-0.196-0.187 0.003-0.003 0.194 0.19zM19.973 10.666l0.024 0.27-0.002 0-0.022-0.27zM23.818 9.842l0.094 0.254-0.001 0.001-0.093-0.255zM24.811 9.547l-0.189 0.194-0.019-0.019-0.015-0.022 0.224-0.153zM23.682 12.425l-0.234-0.137 0.001-0.002 0.233 0.139zM21.269 15.426l0.185 0.198-0 0-0.185-0.198zM15.188 18.997l-0.089-0.256 0.002-0.001 0.088 0.257zM14.373 19.282l0.089 0.256-0.090 0.031-0.090-0.032 0.091-0.256zM13.568 18.997l0.087-0.257 0.004 0.001-0.091 0.256zM7.31 15.233l0.188-0.196 0.001 0.001-0.189 0.195zM3.715 8.326v0zM4.008 5.274l0.234 0.137-0.002 0.003-0.232-0.141zM7.689 0.595c-2.358 0.494-4.21 2.436-4.817 5.115l-0.529-0.12c0.647-2.855 2.64-4.982 5.235-5.526l0.111 0.531zM2.872 5.713c-0.108 0.453-0.162 1.136-0.16 1.845 0.003 0.708 0.062 1.417 0.171 1.921l-0.53 0.115c-0.12-0.554-0.181-1.305-0.184-2.034-0.003-0.728 0.052-1.459 0.175-1.972l0.528 0.125zM2.883 9.479c0.501 2.298 1.613 4.337 3.375 6.113l-0.385 0.382c-1.832-1.846-2.997-3.977-3.52-6.379l0.53-0.115zM6.259 15.592c1.585 1.603 2.968 2.572 5.176 3.586l-0.226 0.493c-2.264-1.040-3.702-2.046-5.335-3.698l0.386-0.381zM11.437 19.179l1.17 0.549-0.23 0.491-1.17-0.549 0.23-0.491zM12.763 19.974v3.703h-0.542v-3.703h0.542zM12.763 23.677v3.713h-0.542v-3.713h0.542zM12.492 27.119h0.627v0.542h-0.627v-0.542zM13.119 27.119h0.627v0.542h-0.627v-0.542zM13.475 27.39v-3.5h0.542v3.5h-0.542zM13.475 23.89v-3.51h0.542v3.51h-0.542zM13.822 20.12l0.313 0.092-0.152 0.521-0.313-0.092 0.152-0.521zM14.134 20.212c0.129 0.037 0.349 0.037 0.478 0l0.149 0.521c-0.226 0.065-0.55 0.065-0.776 0l0.149-0.521zM14.61 20.212l0.313-0.092 0.152 0.521-0.313 0.092-0.152-0.521zM15.271 20.381v3.51h-0.542v-3.51h0.542zM15.271 23.89v3.5h-0.542v-3.5h0.542zM15 27.119h0.627v0.542h-0.627v-0.542zM15.627 27.119h0.627v0.542h-0.627v-0.542zM15.982 27.39v-3.713h0.542v3.713h-0.542zM15.982 23.677v-3.713h0.542v3.713h-0.542zM16.141 19.717l1.118-0.509 0.225 0.494-1.118 0.509-0.225-0.494zM17.258 19.209c2.136-0.985 3.676-2.045 5.176-3.566l0.386 0.381c-1.551 1.572-3.146 2.668-5.335 3.677l-0.227-0.493zM22.434 15.643c2.392-2.429 3.6-5.171 3.6-8.141h0.542c0 3.133-1.279 6.007-3.756 8.522l-0.386-0.381zM26.034 7.501c0.010-3.253-1.691-5.849-4.318-6.731l0.173-0.514c2.889 0.97 4.699 3.806 4.688 7.247l-0.542-0.002zM21.713 0.769c-0.54-0.188-0.806-0.219-1.904-0.209l-0.005-0.542c1.116-0.010 1.457 0.020 2.087 0.239l-0.178 0.512zM19.808 0.56c-0.58 0.005-0.919 0.018-1.219 0.061-0.297 0.042-0.564 0.116-1.001 0.252l-0.162-0.518c0.441-0.138 0.743-0.223 1.086-0.272 0.34-0.049 0.712-0.061 1.291-0.066l0.005 0.542zM17.591 0.873c-1.010 0.328-1.991 0.842-2.628 1.366l-0.344-0.419c0.7-0.575 1.746-1.119 2.805-1.462l0.167 0.516zM14.966 2.236l-0.387 0.326-0.349-0.415 0.387-0.326 0.349 0.415zM14.243 2.572l-0.564-0.417 0.322-0.436 0.564 0.417-0.322 0.436zM13.679 2.156c-1.409-1.037-2.841-1.537-4.531-1.606l0.022-0.542c1.8 0.073 3.335 0.611 4.831 1.711l-0.321 0.437zM9.15 0.55c-0.297-0.010-0.615-0.010-0.886-0.001-0.279 0.009-0.485 0.027-0.572 0.046l-0.117-0.53c0.143-0.032 0.397-0.050 0.672-0.058 0.283-0.009 0.613-0.009 0.922 0.001l-0.018 0.542zM10.065 1.325c0.455 0.084 1.067 0.262 1.397 0.39l-0.197 0.505c-0.297-0.116-0.876-0.284-1.299-0.362l0.099-0.533zM11.467 1.717c0.354 0.146 0.816 0.399 1.24 0.665 0.422 0.265 0.83 0.556 1.069 0.783l-0.374 0.393c-0.199-0.19-0.57-0.458-0.984-0.717-0.412-0.258-0.844-0.493-1.158-0.622l0.206-0.502zM13.775 3.164c0.168 0.159 0.291 0.262 0.392 0.325 0.097 0.060 0.154 0.072 0.196 0.070 0.046-0.002 0.116-0.021 0.232-0.096 0.118-0.076 0.261-0.193 0.453-0.366l0.362 0.404c-0.194 0.174-0.365 0.317-0.521 0.417-0.158 0.101-0.323 0.175-0.505 0.182-0.186 0.007-0.351-0.056-0.505-0.152-0.15-0.094-0.305-0.229-0.476-0.391l0.372-0.394zM15.048 3.099c1.262-1.144 3.28-1.922 4.957-1.922v0.542c-1.541 0-3.43 0.727-4.593 1.781l-0.364-0.402zM20.005 1.178c2.33 0 4.416 1.815 5.079 4.322l-0.524 0.139c-0.612-2.316-2.517-3.918-4.555-3.918v-0.542zM25.083 5.498c0.12 0.446 0.228 1.159 0.239 1.6l-0.542 0.014c-0.010-0.394-0.111-1.064-0.221-1.472l0.524-0.141zM25.322 7.093c0.010 0.222 0.018 0.422-0.005 0.592-0.025 0.184-0.089 0.347-0.226 0.491-0.127 0.133-0.301 0.234-0.511 0.33-0.212 0.098-0.49 0.204-0.843 0.338l-0.192-0.507c0.358-0.136 0.617-0.235 0.809-0.324 0.194-0.089 0.291-0.155 0.345-0.211 0.043-0.045 0.068-0.095 0.082-0.191 0.015-0.111 0.011-0.258 0.001-0.493l0.542-0.025zM23.737 8.844c-1.177 0.448-2.162 0.665-3.828 0.85l-0.060-0.539c1.635-0.181 2.573-0.391 3.695-0.818l0.193 0.507zM19.91 9.694c-0.53 0.061-0.83 0.105-1.036 0.159-0.19 0.050-0.296 0.107-0.435 0.208l-0.318-0.44c0.184-0.133 0.35-0.223 0.615-0.293 0.249-0.065 0.587-0.113 1.111-0.174l0.062 0.539zM18.443 10.059c-0.158 0.118-0.267 0.217-0.349 0.324-0.079 0.105-0.141 0.229-0.188 0.407-0.099 0.373-0.127 0.946-0.127 1.992h-0.542c0-1.029 0.024-1.677 0.145-2.131 0.063-0.236 0.152-0.426 0.28-0.595 0.126-0.166 0.281-0.3 0.457-0.431l0.324 0.435zM17.779 12.781c0 0.774-0.005 1.25-0.031 1.553-0.026 0.299-0.075 0.496-0.222 0.649l-0.391-0.376c0.010-0.010 0.049-0.041 0.073-0.32 0.024-0.275 0.029-0.724 0.029-1.507h0.542zM17.532 14.977c-0.342 0.38-0.909 0.333-1.258-0.007l0.378-0.389c0.173 0.168 0.379 0.141 0.476 0.033l0.403 0.363zM16.273 14.97c-0.065-0.063-0.131-0.139-0.179-0.26-0.044-0.11-0.066-0.241-0.081-0.408-0.029-0.331-0.031-0.896-0.031-1.917h0.542c0 1.034 0.003 1.568 0.029 1.87 0.013 0.15 0.030 0.219 0.044 0.254 0.010 0.024 0.019 0.038 0.054 0.072l-0.378 0.389zM15.982 12.385c0-1.145-0.016-1.789-0.082-2.202-0.032-0.202-0.074-0.337-0.125-0.442-0.050-0.104-0.116-0.192-0.211-0.294l0.396-0.371c0.119 0.127 0.222 0.259 0.303 0.428 0.081 0.167 0.135 0.357 0.173 0.594 0.073 0.464 0.088 1.153 0.088 2.287h-0.542zM15.563 9.446c0.010 0.011 0.010 0.008-0.020-0.012-0.025-0.017-0.059-0.039-0.104-0.067-0.090-0.055-0.213-0.124-0.36-0.204-0.294-0.159-0.677-0.356-1.077-0.553l0.24-0.486c0.404 0.199 0.794 0.399 1.096 0.563 0.151 0.082 0.281 0.155 0.382 0.216 0.050 0.030 0.095 0.059 0.132 0.085 0.032 0.022 0.076 0.054 0.109 0.090l-0.398 0.368zM14.007 8.612c-0.919-0.432-1.847-0.971-2.411-1.404l0.33-0.43c0.523 0.401 1.413 0.921 2.312 1.343l-0.231 0.491zM11.598 7.21c-1.308-0.979-2.237-1.597-3.099-2.012-0.856-0.413-1.657-0.63-2.715-0.795l0.084-0.536c1.094 0.171 1.95 0.401 2.867 0.843 0.912 0.439 1.874 1.083 3.188 2.067l-0.325 0.434zM5.782 4.402c-0.309-0.051-0.595-0.099-0.806-0.137-0.106-0.019-0.193-0.034-0.257-0.046-0.031-0.006-0.058-0.011-0.078-0.015-0.010-0.002-0.020-0.004-0.030-0.007-0.005-0.001-0.011-0.003-0.018-0.005-0.002-0.001-0.023-0.006-0.046-0.018l0.237-0.488c-0.030-0.015-0.059-0.020-0.045-0.017 0.001 0 0.005 0.001 0.012 0.003 0.015 0.003 0.037 0.007 0.067 0.013 0.060 0.011 0.145 0.027 0.25 0.045 0.209 0.037 0.493 0.085 0.801 0.136l-0.088 0.535zM4.503 4.147c-0.084-0.064-0.111-0.151-0.116-0.211-0.005-0.055 0.005-0.103 0.012-0.132 0.016-0.060 0.046-0.119 0.073-0.168 0.058-0.102 0.145-0.226 0.245-0.353 0.202-0.256 0.482-0.562 0.753-0.798l0.357 0.408c-0.242 0.211-0.499 0.491-0.684 0.725-0.093 0.118-0.161 0.216-0.199 0.284-0.020 0.036-0.024 0.049-0.022 0.043 0-0.002 0.007-0.026 0.004-0.063-0.004-0.041-0.024-0.115-0.096-0.169l-0.327 0.432zM5.468 2.487c1.282-1.141 2.749-1.501 4.597-1.163l-0.098 0.533c-1.705-0.312-2.997 0.019-4.138 1.035l-0.361-0.405zM6.623 5.255c1.108 0.275 2.342 0.894 3.461 1.724l-0.323 0.436c-1.075-0.798-2.245-1.379-3.268-1.633l0.131-0.526zM10.082 6.978c0.459 0.335 1.045 0.763 1.307 0.957l-0.323 0.436c-0.26-0.193-0.845-0.619-1.305-0.955l0.32-0.438zM11.389 7.935c0.681 0.505 1.821 1.145 2.68 1.504l-0.209 0.501c-0.896-0.374-2.075-1.036-2.795-1.569l0.323-0.436zM14.072 9.44c0.22 0.094 0.436 0.196 0.609 0.289 0.086 0.046 0.165 0.091 0.229 0.132 0.054 0.035 0.128 0.086 0.177 0.147l-0.424 0.339c0.012 0.015 0.008 0.006-0.048-0.031-0.046-0.030-0.11-0.067-0.189-0.109-0.156-0.083-0.358-0.179-0.567-0.268l0.213-0.499zM15.082 10.003c0.046 0.055 0.070 0.117 0.083 0.161 0.015 0.049 0.027 0.103 0.036 0.161 0.018 0.115 0.032 0.267 0.042 0.457 0.020 0.382 0.028 0.948 0.028 1.746h-0.542c0-0.799-0.008-1.352-0.027-1.718-0.010-0.184-0.022-0.313-0.036-0.399-0.007-0.043-0.013-0.070-0.018-0.084-0.006-0.019-0.004-0.001 0.019 0.026l0.415-0.349zM15.271 12.527c0 0.964 0.008 1.515 0.036 1.868 0.027 0.343 0.071 0.48 0.137 0.621l-0.491 0.23c-0.101-0.215-0.156-0.419-0.187-0.809-0.030-0.379-0.037-0.952-0.037-1.911h0.542zM15.444 15.016c0.155 0.329 0.347 0.551 0.58 0.693 0.234 0.143 0.532 0.22 0.919 0.22v0.542c-0.459 0-0.861-0.091-1.202-0.299-0.342-0.209-0.598-0.521-0.788-0.925l0.491-0.231zM16.943 15.928c0.244 0 0.435-0.036 0.604-0.111s0.335-0.195 0.516-0.385l0.393 0.374c-0.216 0.227-0.438 0.397-0.691 0.508s-0.522 0.156-0.822 0.156v-0.542zM18.066 15.43c0.105-0.107 0.174-0.191 0.225-0.282 0.050-0.090 0.091-0.2 0.121-0.363 0.064-0.341 0.078-0.87 0.078-1.85h0.542c0 0.963-0.012 1.548-0.087 1.95-0.039 0.208-0.096 0.376-0.181 0.529-0.085 0.151-0.191 0.275-0.311 0.397l-0.387-0.38zM18.49 12.934c0-0.548-0.001-0.969 0.016-1.287 0.017-0.31 0.054-0.569 0.159-0.765 0.12-0.224 0.308-0.334 0.529-0.392 0.2-0.053 0.461-0.071 0.756-0.095l0.045 0.541c-0.322 0.027-0.521 0.042-0.663 0.079-0.121 0.032-0.159 0.069-0.189 0.123-0.044 0.082-0.079 0.234-0.096 0.54-0.017 0.299-0.016 0.7-0.016 1.256h-0.542zM19.949 10.395c1.233-0.11 2.767-0.441 3.776-0.809l0.185 0.51c-1.059 0.385-2.639 0.726-3.914 0.839l-0.048-0.54zM23.724 9.587c0.265-0.098 0.514-0.182 0.701-0.237 0.093-0.027 0.175-0.050 0.239-0.063 0.031-0.006 0.066-0.013 0.1-0.015 0.016-0.001 0.044-0.002 0.076 0.002 0.016 0.002 0.044 0.008 0.074 0.021s0.080 0.041 0.119 0.098l-0.448 0.306c0.038 0.055 0.086 0.082 0.113 0.093s0.051 0.016 0.063 0.018c0.023 0.003 0.039 0.002 0.039 0.002 0.003-0-0.004 0-0.027 0.005-0.043 0.009-0.109 0.026-0.196 0.052-0.173 0.051-0.41 0.131-0.667 0.226l-0.188-0.509zM25 9.352c0.052 0.051 0.073 0.108 0.081 0.141 0.009 0.035 0.012 0.067 0.012 0.090 0.001 0.046-0.005 0.093-0.012 0.133-0.014 0.083-0.041 0.186-0.074 0.297-0.067 0.225-0.172 0.516-0.293 0.824-0.241 0.613-0.558 1.321-0.799 1.727l-0.466-0.277c0.218-0.367 0.523-1.043 0.76-1.648 0.118-0.301 0.217-0.577 0.278-0.782 0.031-0.104 0.050-0.181 0.059-0.232 0.004-0.026 0.004-0.034 0.004-0.030 0 0.002 0 0.016 0.006 0.037 0.005 0.018 0.020 0.065 0.065 0.109l0.378-0.389zM23.917 12.562c-0.745 1.275-1.337 2.008-2.462 3.062l-0.371-0.396c1.090-1.021 1.647-1.713 2.365-2.94l0.468 0.274zM21.454 15.624c-1.64 1.534-3.889 2.845-6.178 3.629l-0.176-0.513c2.225-0.762 4.405-2.035 5.984-3.512l0.371 0.396zM15.277 19.253l-0.815 0.285-0.179-0.512 0.815-0.285 0.179 0.512zM14.282 19.538l-0.805-0.285 0.181-0.511 0.805 0.285-0.181 0.511zM13.482 19.254c-2.45-0.826-4.617-2.139-6.361-3.826l0.377-0.39c1.683 1.629 3.78 2.9 6.157 3.702l-0.173 0.514zM7.122 15.429c-2.213-2.124-3.386-4.388-3.676-7.074l0.539-0.058c0.274 2.543 1.379 4.693 3.512 6.741l-0.376 0.391zM3.446 8.355c-0.055-0.512-0.041-1.196 0.017-1.798 0.029-0.302 0.069-0.59 0.118-0.83 0.047-0.23 0.109-0.45 0.196-0.593l0.464 0.281c-0.034 0.056-0.082 0.194-0.128 0.421-0.044 0.216-0.082 0.484-0.109 0.773-0.055 0.58-0.067 1.225-0.017 1.689l-0.539 0.058zM3.774 5.137c0.050-0.084 0.126-0.121 0.16-0.136 0.042-0.018 0.084-0.028 0.12-0.034 0.072-0.013 0.158-0.018 0.247-0.019 0.181-0.002 0.417 0.012 0.675 0.037 0.515 0.051 1.144 0.149 1.645 0.269l-0.127 0.527c-0.471-0.114-1.075-0.208-1.571-0.257-0.248-0.024-0.462-0.036-0.615-0.035-0.078 0.001-0.13 0.005-0.159 0.011-0.015 0.003-0.014 0.004-0.004-0 0.003-0.001 0.058-0.023 0.097-0.089l-0.468-0.275z"></path>
<path d="M7.634 0.33c-2.476 0.519-4.399 2.553-5.026 5.32-0.23 0.966-0.219 2.828 0.010 3.886 0.512 2.35 1.651 4.435 3.448 6.246 1.609 1.628 3.020 2.614 5.256 3.642l1.17 0.549v7.416h1.254v-7.009l0.313 0.092c0.178 0.051 0.449 0.051 0.627 0l0.313-0.092v7.009h1.254v-7.426l1.118-0.509c2.163-0.997 3.73-2.075 5.256-3.622 2.434-2.472 3.678-5.28 3.678-8.332 0.010-3.347-1.745-6.063-4.503-6.989-0.585-0.203-0.888-0.234-1.996-0.224-1.16 0.010-1.421 0.051-2.299 0.326-1.034 0.336-2.048 0.865-2.717 1.414l-0.387 0.326-0.564-0.417c-1.452-1.068-2.936-1.587-4.681-1.658-0.606-0.020-1.296 0-1.525 0.051zM10.016 1.591c0.439 0.081 1.034 0.254 1.348 0.376 0.669 0.275 1.787 0.977 2.226 1.394 0.679 0.641 0.867 0.631 1.64-0.061 1.212-1.099 3.166-1.851 4.775-1.851 2.184 0 4.179 1.709 4.817 4.12 0.115 0.427 0.219 1.119 0.23 1.536 0.042 0.916 0.010 0.946-1.411 1.485-1.149 0.437-2.111 0.651-3.761 0.834-1.055 0.122-1.275 0.183-1.599 0.417-0.669 0.498-0.773 0.865-0.773 2.94 0 1.556-0.021 1.851-0.178 2.014-0.219 0.244-0.606 0.234-0.867-0.020-0.199-0.193-0.209-0.336-0.209-2.391 0-2.279-0.063-2.665-0.491-3.123-0.094-0.102-0.836-0.498-1.64-0.895-0.909-0.427-1.818-0.956-2.361-1.373-2.623-1.963-3.782-2.523-5.935-2.859-0.616-0.102-1.139-0.193-1.16-0.203-0.094-0.071 0.47-0.793 0.982-1.241 1.212-1.078 2.591-1.424 4.367-1.099zM6.557 5.518c1.066 0.264 2.267 0.865 3.364 1.679 0.46 0.336 1.045 0.763 1.306 0.956 0.7 0.519 1.86 1.17 2.738 1.536 0.428 0.183 0.836 0.397 0.909 0.488 0.094 0.112 0.125 0.753 0.125 2.35 0 1.923 0.031 2.248 0.199 2.604 0.345 0.732 0.899 1.068 1.745 1.068 0.543 0 0.919-0.163 1.317-0.58 0.449-0.458 0.502-0.743 0.502-2.686 0-2.208-0.021-2.167 1.212-2.269 1.254-0.112 2.811-0.448 3.845-0.824 0.522-0.193 0.972-0.326 0.993-0.295 0.115 0.112-0.669 2.106-1.128 2.879-0.731 1.251-1.306 1.963-2.414 3.001-1.609 1.506-3.824 2.798-6.081 3.571l-0.815 0.285-0.805-0.285c-2.414-0.814-4.545-2.106-6.259-3.764-2.173-2.085-3.312-4.293-3.594-6.907-0.104-0.977 0.052-2.655 0.293-3.052 0.084-0.142 1.578 0.010 2.549 0.244z"></path>
</symbol>
<symbol id="logo" viewBox="0 0 127 32">
<path fill="#fff" style="fill: var(--color1, #fff)" d="M31.36 16.32c0 8.66-6.877 15.68-15.36 15.68s-15.36-7.020-15.36-15.68c0-8.66 6.877-15.68 15.36-15.68s15.36 7.020 15.36 15.68z"></path>
<path fill="#d41443" style="fill: var(--color2, #d41443)" d="M11.849 0.562c-7.406 2.243-11.849 8.073-11.849 15.442 0 6.023 3.091 11.277 8.179 13.904 2.64 1.346 3.027 0.384 0.58-1.474-1.739-1.41-2.061-2.050-2.061-4.421 0-1.666-0.386-3.011-0.966-3.524-1.159-0.961-1.288-3.46-0.129-4.357 0.451-0.384 0.902-1.666 0.966-2.819 0.322-4.229 4.894-8.201 9.467-8.201s9.145 3.973 9.466 8.201c0.064 1.153 0.515 2.435 0.966 2.819 1.159 0.897 1.030 3.396-0.129 4.357-0.58 0.513-0.966 1.858-0.966 3.524 0 2.371-0.322 3.011-2.061 4.421-2.705 2.114-1.932 2.883 1.095 1.025 4.25-2.627 7.406-8.33 7.406-13.391 0-10.124-10.561-18.325-19.963-15.506z"></path>
<path fill="#d41443" style="fill: var(--color2, #d41443)" d="M12.686 7.994c-1.159 0.513-2.125 1.153-2.125 1.538 0 0.705 3.477 1.986 5.474 1.986s5.474-1.281 5.474-1.986c0-0.769-3.993-2.499-5.603-2.499-0.644 0.064-2.125 0.449-3.22 0.961z"></path>
<path fill="#d41443" style="fill: var(--color2, #d41443)" d="M45.851 11.326c-0.966 0.256-1.159 1.089-1.159 5.703v5.382h4.572l-0.193-5.574c-0.193-5.831-0.451-6.279-3.22-5.51z"></path>
<path fill="#d41443" style="fill: var(--color2, #d41443)" d="M53.386 11.646c-2.125 1.153-2.898 2.563-2.898 5.318 0 3.78 2.061 5.574 5.86 5.318 2.576-0.192 2.833-0.384 3.027-1.986s0.064-1.73-1.932-1.602c-2.061 0.192-2.125 0.064-2.125-2.050s0.129-2.243 1.996-2.050c1.546 0.128 2.125-0.128 2.383-1.089 0.129-0.641 0-1.538-0.386-1.922-0.902-0.897-4.25-0.897-5.925 0.064z"></path>
<path fill="#d41443" style="fill: var(--color2, #d41443)" d="M61.049 11.71c-0.193 0.513-0.258 3.011-0.129 5.638l0.193 4.741h4.186c3.864 0 4.186-0.128 4.379-1.474 0.193-1.217-0.064-1.41-2.060-1.41-1.288 0-2.319-0.32-2.319-0.641 0-0.384 0.902-0.641 1.932-0.641 1.481 0 1.932-0.256 1.932-1.281s-0.451-1.281-1.932-1.281c-1.030 0-1.932-0.32-1.932-0.641 0-0.384 0.837-0.641 1.868-0.641 1.804 0 3.027-1.41 2.254-2.627-0.58-0.961-7.985-0.705-8.372 0.256z"></path>
<path fill="#d41443" style="fill: var(--color2, #d41443)" d="M73.993 11.518c-2.125 0.833-2.962 2.307-3.027 4.998-0.065 4.613 1.803 6.215 6.633 5.767 1.868-0.128 2.189-0.448 2.189-1.794 0-1.41-0.257-1.602-2.061-1.41-1.546 0.128-2.125-0.064-2.447-1.089-0.58-1.986 0.644-3.588 2.705-3.588 1.224 0 1.868-0.384 1.996-1.217 0.451-2.050-2.833-3.011-5.989-1.666z"></path>
<path fill="#d41443" style="fill: var(--color2, #d41443)" d="M81.914 11.262c-0.323 0.256-0.515 2.883-0.515 5.831v5.382l2.060-0.192c1.61-0.128 2.19-0.577 2.512-1.794l0.386-1.602 0.515 1.73c0.387 1.474 0.837 1.794 2.512 1.794 2.769 0 3.091-0.448 1.932-2.691-0.708-1.41-0.837-2.114-0.322-2.627 0.837-0.833 0.902-3.652 0.129-4.87-0.644-1.025-8.371-1.858-9.208-0.961zM87.194 14.722c0 0.705-0.257 1.281-0.644 1.281-0.322 0-0.644-0.577-0.644-1.281s0.322-1.281 0.644-1.281c0.387 0 0.644 0.577 0.644 1.281z"></path>
<path fill="#d41443" style="fill: var(--color2, #d41443)" d="M93.441 11.326c-0.258 0.192-0.451 2.819-0.451 5.767v5.318h4.186c4.057 0 4.186-0.064 4.186-1.602 0-1.346-0.322-1.602-1.932-1.602-1.030 0-1.932-0.32-1.932-0.641 0-0.384 0.708-0.641 1.61-0.641 1.159 0 1.61-0.32 1.61-1.281s-0.451-1.281-1.61-1.281c-0.902 0-1.61-0.32-1.61-0.641 0-0.384 0.902-0.641 1.932-0.641 1.61 0 1.932-0.256 1.932-1.602 0-1.538-0.193-1.602-3.735-1.602-2.061 0-3.992 0.192-4.186 0.448z"></path>
<path fill="#d41443" style="fill: var(--color2, #d41443)" d="M106.45 11.262c-1.16 0.32-4.122 8.842-3.542 10.252 0.515 1.281 3.413 1.153 4.186-0.192 0.579-1.089 0.644-1.089 1.803 0 1.482 1.281 4.701 1.474 4.701 0.256 0-0.384-0.644-2.947-1.482-5.574-1.288-4.229-1.674-4.806-3.027-4.934-0.902 0-2.061 0.064-2.64 0.192zM108.253 17.093c-0.193 0.641-0.322 0.256-0.322-0.769 0-1.089 0.129-1.538 0.322-1.153 0.129 0.448 0.129 1.346 0 1.922z"></path>
<path fill="#d41443" style="fill: var(--color2, #d41443)" d="M115.723 11.326c-0.58 0.192-0.837 1.986-0.837 5.703v5.382h1.868c1.61 0 1.932-0.32 2.189-1.794 0.257-1.666 0.257-1.666 0.772-0.32 0.258 0.833 0.902 1.474 1.352 1.474 0.515 0 1.224-0.641 1.546-1.474 0.515-1.346 0.58-1.346 0.58 0.384 0.065 1.602 0.257 1.794 2.061 1.602l1.996-0.192 0.065-5.318c0.129-4.934 0.064-5.318-1.288-5.638-2.061-0.513-3.799 0.705-4.379 3.076l-0.451 2.114-0.708-2.243c-0.902-3.011-2.254-3.78-4.765-2.755z"></path>
<path fill="#d41443" style="fill: var(--color2, #d41443)" d="M9.016 11.967c-0.193 0.256-0.386 1.089-0.386 1.922 0 1.474 0.064 1.474 7.406 1.474s7.406 0 7.406-1.474c0-2.178-0.58-2.435-2.64-1.41-2.318 1.217-7.213 1.217-9.531 0-1.030-0.513-1.996-0.705-2.254-0.513z"></path>
<path fill="#d41443" style="fill: var(--color2, #d41443)" d="M7.148 17.669c-1.030 1.089 0.708 1.538 5.731 1.538h5.409v2.243c0 1.217 0.322 2.243 0.644 2.243 0.386 0 0.644-0.961 0.644-2.178 0-2.114 0.129-2.243 2.576-2.435 1.417-0.128 2.576-0.513 2.576-0.833 0-0.705-16.872-1.281-17.581-0.577z"></path>
<path fill="#d41443" style="fill: var(--color2, #d41443)" d="M8.629 23.308c0 3.524 1.224 4.229 7.406 4.229s7.406-0.705 7.406-4.229c0-1.538-0.322-2.178-0.966-2.178-0.58 0-0.966 0.577-0.966 1.538 0 3.588-4.894 3.908-5.603 0.384-0.322-1.858-0.515-1.922-3.8-1.922h-3.477v2.178z"></path>
<path fill="#d41443" style="fill: var(--color2, #d41443)" d="M12.622 30.548c0.386 2.050 6.955 1.858 6.955-0.128 0-0.705-0.837-0.961-3.606-0.961-3.027 0-3.542 0.192-3.349 1.089z"></path>
</symbol>

<symbol id="icon-vector" viewBox="0 0 26 32">
<path fill="#d41443" stroke="#d41443" style="stroke: var(--color1, #d41443)" stroke-linejoin="round" stroke-linecap="round" stroke-miterlimit="4" stroke-width="6.4" d="M5.173 3.2l14.169 12.8-14.169 12.8"></path>
</symbol>

  </defs>
</svg>
